<svg width="20" height="20" viewBox="0 0 20 20" fill="none" xmlns="http://www.w3.org/2000/svg">
<path d="M16.5374 17.4692C18.3036 17.4692 19.1657 16.6322 19.1657 14.8827V10.7895C19.1657 9.59254 18.8309 8.94799 17.8683 8.21976L11.3644 3.27277C10.2595 2.44409 9.40573 2.15112 8.04131 2.15112H3.9816C2.29075 2.15112 1.42859 3.00492 1.42859 4.67902V14.8827C1.42859 16.6322 2.28238 17.4692 4.05694 17.4692H16.5374ZM16.4872 9.75154H4.00672C3.23662 9.75154 2.77625 9.3079 2.77625 8.50436V4.74599C2.77625 3.93405 3.22825 3.49878 4.00672 3.49878H8.04131C9.11273 3.49878 9.73216 3.68293 10.4437 4.25212L16.6797 9.02333C17.0229 9.27445 16.9308 9.75154 16.4872 9.75154Z" fill="#9193A7"/>
</svg>
