<svg width="100" height="100" viewBox="0 0 100 100" fill="none" xmlns="http://www.w3.org/2000/svg">
<circle cx="50" cy="50" r="50" fill="#F4F5F9"/>
<path d="M62.9199 42.0671C62.7919 41.9833 62.6457 41.935 62.495 41.9268C62.3443 41.9187 62.1941 41.9509 62.0586 42.0205C57.2878 44.4704 53.8806 43.3224 50.2789 42.1115C46.4905 40.8457 42.5787 39.5332 37.1656 42.3075C37.0161 42.3841 36.8901 42.5032 36.8019 42.6513C36.7137 42.7994 36.6668 42.9705 36.6666 43.1451V57.1366C36.6666 57.295 36.705 57.4507 36.7781 57.5892C36.8512 57.7277 36.9567 57.8444 37.0847 57.9283C37.2126 58.0122 37.3587 58.0606 37.5094 58.0688C37.66 58.0771 37.8102 58.0449 37.9457 57.9754C42.7165 55.5255 46.1237 56.6735 49.731 57.8844C51.8691 58.6019 54.0473 59.3334 56.5099 59.3334C58.4091 59.3334 60.4806 58.8994 62.8343 57.6931C62.9838 57.6165 63.1098 57.4974 63.198 57.3493C63.2862 57.2012 63.3331 57.0301 63.3333 56.8555V42.864C63.3346 42.7052 63.2973 42.5487 63.225 42.4093C63.1527 42.2698 63.0476 42.1521 62.9199 42.0671ZM41.1118 52.8002C41.1118 53.0478 41.0181 53.2852 40.8514 53.4602C40.6847 53.6352 40.4586 53.7335 40.2228 53.7335C39.987 53.7335 39.7609 53.6352 39.5941 53.4602C39.4274 53.2852 39.3337 53.0478 39.3337 52.8002V45.3337C39.3337 45.0862 39.4274 44.8488 39.5941 44.6738C39.7609 44.4987 39.987 44.4004 40.2228 44.4004C40.4586 44.4004 40.6847 44.4987 40.8514 44.6738C41.0181 44.8488 41.1118 45.0862 41.1118 45.3337V52.8002ZM50.0022 53.7335C49.2988 53.7335 48.6113 53.5146 48.0265 53.1044C47.4417 52.6942 46.9859 52.1111 46.7167 51.4289C46.4476 50.7468 46.3771 49.9962 46.5144 49.272C46.6516 48.5478 46.9903 47.8826 47.4876 47.3605C47.9849 46.8384 48.6186 46.4828 49.3084 46.3388C49.9982 46.1947 50.7132 46.2687 51.363 46.5512C52.0128 46.8338 52.5682 47.3123 52.959 47.9262C53.3497 48.5401 53.5583 49.2619 53.5583 50.0003C53.5583 50.9904 53.1836 51.94 52.5167 52.6401C51.8498 53.3402 50.9453 53.7335 50.0022 53.7335ZM60.6706 54.6669C60.6706 54.9144 60.5769 55.1518 60.4102 55.3268C60.2435 55.5018 60.0173 55.6002 59.7816 55.6002C59.5458 55.6002 59.3196 55.5018 59.1529 55.3268C58.9862 55.1518 58.8925 54.9144 58.8925 54.6669V47.2004C58.8925 46.9528 58.9862 46.7154 59.1529 46.5404C59.3196 46.3654 59.5458 46.267 59.7816 46.267C60.0173 46.267 60.2435 46.3654 60.4102 46.5404C60.5769 46.7154 60.6706 46.9528 60.6706 47.2004V54.6669Z" fill="#11327F"/>
</svg>
