<svg width="100" height="100" viewBox="0 0 100 100" fill="none" xmlns="http://www.w3.org/2000/svg">
<circle cx="50" cy="50" r="50" fill="#F4F5F9"/>
<path d="M64.2437 49.8147H61.9661L61.3416 48.2351C60.7171 46.6188 59.1375 45.5535 57.3742 45.5535H52.4885C50.7252 45.5535 49.1456 46.6188 48.5211 48.2351L47.8966 49.8147H45.619C45.3619 49.8147 45.1782 50.0351 45.1782 50.2923V50.4025L45.3986 51.3209C45.4354 51.5413 45.619 51.6515 45.8395 51.6515H46.6109C46.0599 52.129 45.766 52.7903 45.766 53.4882V55.325C45.766 55.9127 45.9864 56.5005 46.3537 56.9413V58.9985C46.3537 59.6597 46.9048 60.2107 47.566 60.2107H48.7782C49.4395 60.2107 49.9905 59.6597 49.9905 58.9985V57.7862H59.7987V58.9985C59.7987 59.6597 60.3498 60.2107 61.011 60.2107H62.2232C62.8845 60.2107 63.4355 59.6597 63.4355 58.9985V56.9413C63.8396 56.5005 64.06 55.9127 64.06 55.325V53.4882C64.06 52.7903 63.7294 52.0923 63.2151 51.6515H63.9865C64.2069 51.6515 64.3906 51.5045 64.4273 51.3209L64.6478 50.4025C64.7212 50.1453 64.5743 49.9249 64.3171 49.8515C64.3171 49.8515 64.2804 49.8147 64.2437 49.8147ZM50.7987 49.1535C51.0926 48.4555 51.7538 48.0147 52.4885 48.0147H57.3742C58.1089 48.0147 58.8069 48.4555 59.064 49.1535L59.8355 51.0637H50.0272L50.7987 49.1535ZM48.815 55.325C48.1538 55.325 47.6027 54.7739 47.6027 54.1127C47.6027 53.4515 48.1538 52.9005 48.815 52.9005C49.5497 52.9005 50.6517 54.0025 50.6517 54.7372C50.6517 55.4719 49.5497 55.3617 48.815 55.325ZM61.0477 55.325C60.313 55.325 59.211 55.4352 59.211 54.7005C59.211 53.9658 60.313 52.8637 61.0477 52.8637C61.6722 52.827 62.2233 53.3045 62.26 53.929V54.076C62.2967 54.7005 61.8192 55.2515 61.1947 55.2882C61.1579 55.325 61.0845 55.325 61.0477 55.325Z" fill="#11327F"/>
<path d="M51.5335 43.3493C50.8723 41.733 49.2927 40.6309 47.5661 40.6676H42.7171C40.9538 40.6676 39.3742 41.733 38.7497 43.3493L38.0885 44.9289H35.8109C35.5538 44.9289 35.3334 45.1126 35.3334 45.3697V45.4799L35.5538 46.3983C35.5905 46.6187 35.7742 46.7656 35.9946 46.7289H36.8028C36.2517 47.2065 35.9579 47.8677 35.9579 48.5657V50.4024C35.9579 50.9902 36.1783 51.5412 36.5456 51.982V54.1126C36.5456 54.7739 37.0967 55.3249 37.7579 55.3616H39.0069C39.6681 55.3616 40.2191 54.8106 40.2191 54.1494V52.9371H43.9294C43.9294 52.8637 43.9661 52.7534 43.9661 52.68C43.7824 52.4228 43.6355 52.129 43.562 51.8351L43.3416 50.9167C43.0477 49.7044 43.7824 48.4555 45.0314 48.1248C45.2151 48.0881 45.3988 48.0514 45.5824 48.0514H46.611L46.7947 47.6106C46.9784 47.0963 47.2722 46.6554 47.5661 46.2146H40.2191L40.9906 44.3044C41.2844 43.6064 41.9457 43.1656 42.6804 43.1656H47.5294C48.2641 43.1656 48.9621 43.6064 49.2192 44.3044L49.3294 44.5983C50.0274 44.1942 50.8355 43.9003 51.6437 43.7901L51.5335 43.3493ZM40.8436 49.8146C40.8436 50.5493 39.7416 50.4391 39.0069 50.4391C38.3824 50.4759 37.8314 49.9983 37.7946 49.3738C37.7946 49.3371 37.7946 49.2636 37.7946 49.2269C37.7579 48.6024 38.2354 48.0514 38.8599 48.0146H39.0069C39.7416 47.9779 40.8436 49.0799 40.8436 49.8146Z" fill="#11327F"/>
</svg>
