<svg width="20" height="20" viewBox="0 0 20 20" fill="none" xmlns="http://www.w3.org/2000/svg">
<path d="M9.96652 18.5043C14.6373 18.5043 18.5044 14.6288 18.5044 9.9664C18.5044 5.29565 14.6289 1.42847 9.95816 1.42847C5.29577 1.42847 1.42859 5.29565 1.42859 9.9664C1.42859 14.6288 5.30415 18.5043 9.96652 18.5043Z" fill="#9193A7"/>
<path d="M7.12891 14.0094C6.7355 14.0094 6.48438 13.7666 6.48438 13.415C6.48438 13.2812 6.50112 13.1556 6.57645 12.963L8.99557 6.45079C9.17129 5.99878 9.48943 5.7644 9.95815 5.7644C10.4353 5.7644 10.7617 5.99878 10.9291 6.45079L13.3566 12.963C13.4236 13.1556 13.4486 13.2812 13.4486 13.415C13.4486 13.7666 13.1891 14.0094 12.8041 14.0094C12.4861 14.0094 12.2684 13.8587 12.1345 13.4569L11.5067 11.6238H8.42635L7.79855 13.4569C7.66462 13.8671 7.43862 14.0094 7.12891 14.0094ZM8.7695 10.5775H11.1551L10.0084 7.24599H9.91629L8.7695 10.5775Z" fill="white"/>
</svg>
