<svg xmlns="http://www.w3.org/2000/svg"><style>:root svg:not(:target){display:none}</style><svg viewBox="0 0 512 512" id="browser"><path d="M464 32H48C21.5 32 0 53.5 0 80v352c0 26.5 21.5 48 48 48h416c26.5 0 48-21.5 48-48V80c0-26.5-21.5-48-48-48zM32 80c0-8.8 7.2-16 16-16h48v64H32V80zm448 352c0 8.8-7.2 16-16 16H48c-8.8 0-16-7.2-16-16V160h448v272zm0-304H128V64h336c8.8 0 16 7.2 16 16v48z"></path></svg><svg viewBox="0 0 384 512" id="brush"><path d="M352 0H32C14.33 0 0 14.33 0 32v288c0 35.35 28.66 64 64 64h64v64c0 35.35 28.66 64 64 64s64-28.65 64-64v-64h64c35.34 0 64-28.65 64-64V32c0-17.67-14.33-32-32-32zm0 320c0 17.64-14.36 32-32 32h-96v96c0 17.64-14.36 32-32 32s-32-14.36-32-32v-96H64c-17.64 0-32-14.36-32-32v-32h320v32zm0-64H32V32h320v224z"></path></svg><svg viewBox="0 0 576 512" id="bug"><path d="M544 272h-64V150.627l35.313-35.313c6.249-6.248 6.249-16.379 0-22.627-6.248-6.248-16.379-6.248-22.627 0L457.373 128H417C417 57.26 359.751 0 289 0c-70.74 0-128 57.249-128 128h-42.373L75.314 84.687c-6.249-6.248-16.379-6.248-22.628 0-6.248 6.248-6.248 16.379 0 22.627L96 150.627V272H32c-8.836 0-16 7.163-16 16s7.164 16 16 16h64v24c0 36.634 11.256 70.686 30.484 98.889l-57.797 57.797c-6.249 6.248-6.249 16.379 0 22.627 6.249 6.249 16.379 6.248 22.627 0l55.616-55.616C178.851 483.971 223.128 504 272 504h32c48.872 0 93.149-20.029 125.071-52.302l55.616 55.616c6.249 6.249 16.379 6.248 22.627 0 6.249-6.248 6.249-16.379 0-22.627l-57.797-57.797C468.744 398.686 480 364.634 480 328v-24h64c8.837 0 16-7.163 16-16s-7.163-16-16-16zM289 32c53.019 0 96 42.981 96 96H193c0-53.019 42.981-96 96-96zm15 440V236c0-6.627-5.373-12-12-12h-8c-6.627 0-12 5.373-12 12v236c-79.402 0-144-64.599-144-144V160h320v168c0 79.401-64.599 144-144 144z"></path></svg><svg viewBox="0 0 448 512" id="building"><path d="M192 107v40c0 6.627-5.373 12-12 12h-40c-6.627 0-12-5.373-12-12v-40c0-6.627 5.373-12 12-12h40c6.627 0 12 5.373 12 12zm116-12h-40c-6.627 0-12 5.373-12 12v40c0 6.627 5.373 12 12 12h40c6.627 0 12-5.373 12-12v-40c0-6.627-5.373-12-12-12zm-128 96h-40c-6.627 0-12 5.373-12 12v40c0 6.627 5.373 12 12 12h40c6.627 0 12-5.373 12-12v-40c0-6.627-5.373-12-12-12zm128 0h-40c-6.627 0-12 5.373-12 12v40c0 6.627 5.373 12 12 12h40c6.627 0 12-5.373 12-12v-40c0-6.627-5.373-12-12-12zm-128 96h-40c-6.627 0-12 5.373-12 12v40c0 6.627 5.373 12 12 12h40c6.627 0 12-5.373 12-12v-40c0-6.627-5.373-12-12-12zm128 0h-40c-6.627 0-12 5.373-12 12v40c0 6.627 5.373 12 12 12h40c6.627 0 12-5.373 12-12v-40c0-6.627-5.373-12-12-12zm140 205v20H0v-20c0-6.627 5.373-12 12-12h20V24C32 10.745 42.745 0 56 0h336c13.255 0 24 10.745 24 24v456h20c6.627 0 12 5.373 12 12zm-64-12V32H64v448h128v-85c0-6.627 5.373-12 12-12h40c6.627 0 12 5.373 12 12v85h128z"></path></svg><svg viewBox="0 0 576 512" id="bullhorn"><path d="M544 184.88V32c0-8.74-6.98-32-31.99-32H512c-7.12 0-14.19 2.38-19.98 7.02l-85.03 68.03C364.28 109.19 310.66 128 256 128H64c-35.35 0-64 28.65-64 64v96c0 35.35 28.65 64 64 64l-.48 32c0 39.77 9.26 77.35 25.56 110.94 5.19 10.69 16.52 17.06 28.4 17.06h106.28c26.05 0 41.69-29.84 25.9-50.56-16.4-21.52-26.15-48.36-26.15-77.44 0-11.11 1.62-21.79 4.41-32H256c54.66 0 108.28 18.81 150.98 52.95l85.03 68.03a32.023 32.023 0 0 0 19.98 7.02c24.92 0 32-22.78 32-32V295.12c19.05-11.09 32-31.49 32-55.12.01-23.63-12.94-44.03-31.99-55.12zM223.76 480l-105.89-.03c-14.83-30.56-22.35-62.19-22.36-95.49l.48-32L96 352h99.33c-2.31 10.7-3.81 21.43-3.81 32 0 35.29 11.3 68.78 32.24 96zM64 320c-17.64 0-32-14.36-32-32v-96c0-17.64 14.36-32 32-32h192v160H64zm448.05 126.93c-.04.25-.13.58-.25.9l-84.83-67.87C386.99 348 338.54 328.14 288 322.13V157.87c50.54-6.01 98.99-25.87 138.98-57.84l84.87-67.9c.03.03.06.05.08.05.04 0 .06-.05.07-.17l.05 414.92z"></path></svg><svg viewBox="0 0 496 512" id="bullseye-arrow"><path d="M305.05 98.74l23.96 53.62-92.33 92.33c-6.25 6.25-6.25 16.38 0 22.62 3.12 3.12 7.22 4.69 11.31 4.69s8.19-1.56 11.31-4.69l92.33-92.33 53.62 23.96a20.547 20.547 0 0 0 21.04-4.96l63.67-63.67c10.8-10.8 6.46-29.2-8.04-34.04l-55.66-18.55-18.55-55.65C404.73 13.08 396.54 8 388.16 8c-5.14 0-10.36 1.92-14.47 6.03L310.02 77.7a20.582 20.582 0 0 0-4.97 21.04zm78.18-48.99l12.7 38.09 5.06 15.18 15.18 5.06 38.09 12.7-44.93 44.93-49.09-21.93-21.93-49.09 44.92-44.94zm101.2 131.35l-26.18 26.18c3.63 15.69 5.75 31.95 5.75 48.72 0 119.1-96.9 216-216 216S32 375.1 32 256 128.9 40 248 40c16.78 0 33.04 2.11 48.72 5.75l26.18-26.18A247.848 247.848 0 0 0 248 8C111.03 8 0 119.03 0 256s111.03 248 248 248 248-111.03 248-248c0-26.11-4.09-51.26-11.57-74.9zM274.7 108.85a53.056 53.056 0 0 1-2.68-14.44C264.12 93.25 256.23 92 248 92c-90.65 0-164 73.36-164 164 0 90.65 73.36 164 164 164 90.65 0 164-73.36 164-164 0-8.35-1.25-16.35-2.45-24.36-4.89-.21-9.76-.79-14.41-2.34-2.12-.71 1.02.62-20.69-9.07C377.7 231.68 380 243.52 380 256c0 72.79-59.21 132-132 132s-132-59.21-132-132 59.21-132 132-132c12.48 0 24.32 2.3 35.77 5.55-9.69-21.7-8.36-18.56-9.07-20.7zM248 176c-44.11 0-80 35.89-80 80s35.89 80 80 80 80-35.89 80-80c0-3.77-.61-7.38-1.11-11.01l-44.95 44.95-.01-.01c-8.7 8.69-20.7 14.07-33.93 14.07-26.47 0-48-21.53-48-48 0-13.23 5.38-25.23 14.07-33.93l-.01-.01 44.95-44.95c-3.63-.5-7.24-1.11-11.01-1.11z"></path></svg><svg viewBox="0 0 448 512" id="check"><path d="M413.505 91.951L133.49 371.966l-98.995-98.995c-4.686-4.686-12.284-4.686-16.971 0L6.211 284.284c-4.686 4.686-4.686 12.284 0 16.971l118.794 118.794c4.686 4.686 12.284 4.686 16.971 0l299.813-299.813c4.686-4.686 4.686-12.284 0-16.971l-11.314-11.314c-4.686-4.686-12.284-4.686-16.97 0z"></path></svg><svg viewBox="0 0 24 24" fill="none" id="close"><g id="close_0"><path id="close_1" d="M6 18L18 6M6 6L18 18" stroke="#182936" stroke-width="1.5" stroke-linecap="round" stroke-linejoin="round"></path></g></svg><svg viewBox="0 -960 960 960" id="home"><path d="M220-180h150v-250h220v250h150v-390L480-765 220-570v390Zm-60 60v-480l320-240 320 240v480H530v-250H430v250H160Zm320-353Z"></path></svg><svg viewBox="0 -960 960 960" id="menu"><path d="M120-240v-60h720v60H120Zm0-210v-60h720v60H120Zm0-210v-60h720v60H120Z"></path></svg><svg viewBox="0 0 320 512" id="times"><path d="M193.94 256L296.5 153.44l21.15-21.15c3.12-3.12 3.12-8.19 0-11.31l-22.63-22.63c-3.12-3.12-8.19-3.12-11.31 0L160 222.06 36.29 98.34c-3.12-3.12-8.19-3.12-11.31 0L2.34 120.97c-3.12 3.12-3.12 8.19 0 11.31L126.06 256 2.34 379.71c-3.12 3.12-3.12 8.19 0 11.31l22.63 22.63c3.12 3.12 8.19 3.12 11.31 0L160 289.94 262.56 392.5l21.15 21.15c3.12 3.12 8.19 3.12 11.31 0l22.63-22.63c3.12-3.12 3.12-8.19 0-11.31L193.94 256z"></path></svg></svg>